<svg width="70" height="70" viewBox="0 0 70 70" fill="none" xmlns="http://www.w3.org/2000/svg">
<path d="M60.7834 13.4458C59.2936 11.9554 57.5249 10.7731 55.5781 9.96651C53.6314 9.15987 51.5448 8.74469 49.4375 8.74469C47.3303 8.74469 45.2437 9.15987 43.2969 9.96651C41.3501 10.7731 39.5814 11.9554 38.0917 13.4458L35 16.5375L31.9084 13.4458C28.8993 10.4367 24.818 8.74625 20.5625 8.74625C16.307 8.74625 12.2258 10.4367 9.21669 13.4458C6.20759 16.4549 4.51709 20.5362 4.51709 24.7917C4.51709 29.0472 6.20759 33.1284 9.21669 36.1375L35 61.9208L60.7834 36.1375C62.2738 34.6478 63.456 32.8791 64.2627 30.9323C65.0693 28.9855 65.4845 26.8989 65.4845 24.7917C65.4845 22.6844 65.0693 20.5978 64.2627 18.6511C63.456 16.7043 62.2738 14.9356 60.7834 13.4458Z" stroke="#1E1E1E" stroke-width="4" stroke-linecap="round" stroke-linejoin="round"/>
</svg>
